<svg width="24" height="24" viewBox="0 0 24 24" fill="none" xmlns="http://www.w3.org/2000/svg">
<path d="M20.22 16.62C20.22 17.47 19.53 18.16 18.68 18.16H5.32001C4.47001 18.16 3.78 17.47 3.78 16.62C3.78 15.77 4.47001 15.08 5.32001 15.08H5.82999V9.94C5.82999 6.54 8.59 3.77 12 3.77C13.7 3.77 15.24 4.46 16.36 5.58C17.48 6.69 18.17 8.23 18.17 9.94V15.08H18.68C19.53 15.08 20.22 15.77 20.22 16.62Z" stroke="black" stroke-width="1.5" stroke-linecap="round" stroke-linejoin="round"/>
<path d="M12 3.78V2.75" stroke="black" stroke-width="1.5" stroke-linecap="round" stroke-linejoin="round"/>
<path d="M15.08 18.17C15.08 19.88 13.7 21.25 12 21.25C10.3 21.25 8.92001 19.87 8.92001 18.17H15.08Z" stroke="black" stroke-width="1.5" stroke-linecap="round" stroke-linejoin="round"/>
</svg>
